<svg xmlns="http://www.w3.org/2000/svg" width="74.533" height="75.053" viewBox="0 0 74.533 75.053">
  <defs>
    <style>
      .cls-1, .cls-2 {
        fill: none;
        stroke-linecap: round;
        stroke-linejoin: round;
        stroke-width: 4px;
      }

      .cls-1 {
        stroke: #3056ef;
      }

      .cls-2 {
        stroke: #ea597b;
      }
    </style>
  </defs>
  <g id="Group_241" data-name="Group 241" transform="translate(-0.353 -0.093)">
    <g id="Group_242" data-name="Group 242" transform="translate(0.119 0.119)">
      <path id="Path_231" data-name="Path 231" class="cls-1" d="M12.46,3H50.085a4.627,4.627,0,0,1,4.55,4.7,4.627,4.627,0,0,1-4.55,4.7H12.46" transform="translate(18.132 3.936)"/>
      <path id="Path_232" data-name="Path 232" class="cls-1" d="M11.674,12.4H5.7A4.7,4.7,0,0,1,5.7,3h5.972" transform="translate(1.233 3.936)"/>
      <circle id="Ellipse_3" data-name="Ellipse 3" class="cls-2" cx="9.375" cy="9.375" r="9.375" transform="translate(11.842 1.974)"/>
      <path id="Path_233" data-name="Path 233" class="cls-1" d="M18.46,25H43.241a4.7,4.7,0,0,1,0,9.4H18.46" transform="translate(24.824 33.66)"/>
      <path id="Path_234" data-name="Path 234" class="cls-1" d="M25.108,34.4H5.575a4.7,4.7,0,0,1,0-9.4H25.108" transform="translate(1.233 33.66)"/>
      <circle id="Ellipse_4" data-name="Ellipse 4" class="cls-2" cx="9.375" cy="9.375" r="9.375" transform="translate(25.658 54.276)"/>
      <path id="Path_235" data-name="Path 235" class="cls-1" d="M26.46,14h5.972a4.7,4.7,0,1,1,0,9.4H26.46" transform="translate(35.633 18.798)"/>
      <path id="Path_236" data-name="Path 236" class="cls-1" d="M32.847,23.4H5.55a4.7,4.7,0,0,1,0-9.4H43.175" transform="translate(1.233 18.798)"/>
      <ellipse id="Ellipse_5" data-name="Ellipse 5" class="cls-2" cx="9.375" cy="9.868" rx="9.375" ry="9.868" transform="translate(44.408 27.632)"/>
    </g>
  </g>
</svg>
