<svg xmlns="http://www.w3.org/2000/svg" width="54" height="79" viewBox="0 0 54 79">
  <defs>
    <style>
      .cls-1, .cls-2 {
        fill: none;
        stroke-linecap: round;
        stroke-linejoin: round;
        stroke-width: 4px;
      }

      .cls-1 {
        stroke: #3056ef;
      }

      .cls-2 {
        stroke: #ea597b;
      }
    </style>
  </defs>
  <g id="Group_236" data-name="Group 236" transform="translate(-1189 -259)">
    <g id="Group_207" data-name="Group 207">
      <g id="Group_204" data-name="Group 204" transform="translate(1191 261)">
        <path id="Path_208" data-name="Path 208" class="cls-1" d="M1,35.524V18.005A5,5,0,0,1,6,13H46a5,5,0,0,1,5,5.005V53.042a5,5,0,0,1-5,5.005H6a5,5,0,0,1-5-5.005V45.534" transform="translate(-1 16.953)"/>
        <path id="Path_209" data-name="Path 209" class="cls-1" d="M4,31.031V18.518a17.492,17.492,0,1,1,34.984,0V31.031" transform="translate(3.508 -1)"/>
        <path id="Path_210" data-name="Path 210" class="cls-1" d="M8,25.021V12.508a7.508,7.508,0,0,1,15.016,0V25.021" transform="translate(9.492 5.01)"/>
        <path id="Path_211" data-name="Path 211" class="cls-2" d="M14.005,34.016h0A5,5,0,0,1,9,29.01V24.005a5.005,5.005,0,1,1,10.01,0V29.01A5,5,0,0,1,14.005,34.016Z" transform="translate(10.995 25.988)"/>
      </g>
    </g>
  </g>
</svg>
